<?xml version="1.0" standalone="no"?>
<!DOCTYPE svg PUBLIC "-//W3C//DTD SVG 20010904//EN"
 "http://www.w3.org/TR/2001/REC-SVG-20010904/DTD/svg10.dtd">
<svg version="1.0" xmlns="http://www.w3.org/2000/svg"
 width="409.000000pt" height="127.000000pt" viewBox="0 0 409.000000 127.000000"
 preserveAspectRatio="xMidYMid meet">

<g transform="translate(0.000000,127.000000) scale(0.100000,-0.100000)"
fill="#000000" stroke="none">
<path d="M0 635 l0 -635 2045 0 2045 0 0 635 0 635 -2045 0 -2045 0 0 -635z
m4040 5 l0 -590 -2000 0 -2000 0 0 590 0 590 2000 0 2000 0 0 -590z"/>
<path d="M50 640 l0 -580 1990 0 1990 0 0 580 0 580 -1990 0 -1990 0 0 -580z
m770 20 l0 -400 -295 0 -295 0 0 400 0 400 295 0 295 0 0 -400z m330 90 c0 -6
-28 -10 -65 -10 l-65 0 0 -190 0 -190 65 0 c37 0 65 -4 65 -10 0 -6 -52 -10
-135 -10 -83 0 -135 4 -135 10 0 6 27 10 60 10 l60 0 0 190 0 190 -60 0 c-33
0 -60 4 -60 10 0 6 52 10 135 10 83 0 135 -4 135 -10z m399 -8 c76 -41 94
-151 35 -214 -16 -16 -37 -33 -47 -37 -15 -6 -12 -14 26 -66 58 -81 60 -85 45
-85 -7 0 -35 32 -63 70 l-49 70 -83 0 -83 0 0 -70 c0 -56 -3 -70 -15 -70 -13
0 -15 30 -15 210 l0 210 108 0 c85 0 114 -4 141 -18z m438 -2 c54 -32 64 -118
19 -161 l-22 -21 33 -33 c27 -27 33 -41 33 -75 0 -34 -6 -48 -34 -76 l-34 -34
-116 0 -116 0 0 210 0 210 103 0 c83 0 108 -4 134 -20z m441 -182 c45 -112 82
-207 82 -211 0 -26 -25 7 -49 63 l-27 65 -103 0 -104 0 -26 -67 c-14 -38 -32
-68 -39 -68 -8 0 -12 6 -9 13 3 6 37 91 77 187 40 96 76 185 81 198 5 12 14
22 22 22 7 0 47 -84 95 -202z m349 60 l143 -143 0 143 c0 120 2 142 15 142 13
0 15 -30 15 -210 0 -180 -2 -210 -15 -210 -11 0 -15 13 -15 54 l0 54 -142 136
-143 135 -3 -190 c-1 -115 -6 -189 -12 -189 -6 0 -10 80 -10 210 0 160 3 210
12 210 7 0 77 -64 155 -142z m583 132 c0 -6 -52 -10 -135 -10 l-135 0 0 -85 0
-85 120 0 c73 0 120 -4 120 -10 0 -6 -47 -10 -120 -10 l-120 0 0 -95 0 -95
135 0 c83 0 135 -4 135 -10 0 -6 -55 -10 -145 -10 l-145 0 0 210 0 210 145 0
c90 0 145 -4 145 -10z m216 -110 c36 -66 70 -123 75 -125 4 -3 38 51 76 120
37 68 74 125 81 125 9 0 12 -49 12 -210 l0 -210 -170 0 -170 0 0 210 c0 175 2
210 14 210 8 0 45 -54 82 -120z"/>
<path d="M240 660 l0 -390 285 0 285 0 0 390 0 390 -285 0 -285 0 0 -390z
m467 12 l-88 -88 79 -110 c43 -60 81 -115 86 -121 6 -10 -29 -13 -158 -13
l-166 0 0 210 0 210 167 0 168 0 -88 -88z"/>
<path d="M537 502 c-51 -52 -57 -62 -57 -100 l0 -42 136 0 136 0 -24 33 c-14
17 -47 62 -73 100 -27 37 -51 67 -55 67 -3 0 -31 -26 -63 -58z"/>
<path d="M1330 619 l0 -121 94 4 c110 4 142 20 165 85 13 36 12 43 -5 79 -27
56 -69 74 -171 74 l-83 0 0 -121z"/>
<path d="M1770 650 l0 -92 94 4 c84 3 97 6 120 27 19 18 26 35 26 61 0 26 -7
43 -26 61 -23 21 -36 24 -120 27 l-94 4 0 -92z"/>
<path d="M1770 450 l0 -90 101 0 c98 0 101 1 130 29 20 20 29 39 29 61 0 22
-9 41 -29 61 -29 28 -32 29 -130 29 l-101 0 0 -90z"/>
<path d="M2322 700 c-6 -14 -26 -63 -45 -110 l-35 -85 85 -3 c47 -2 88 -1 90
2 3 3 -15 54 -40 113 -42 99 -46 106 -55 83z"/>
<path d="M3790 693 c-1 -5 -1 -79 0 -165 l1 -157 -143 -4 -143 -3 148 -2 147
-2 0 170 c0 94 -2 170 -5 170 -3 0 -5 -3 -5 -7z"/>
<path d="M3540 640 c6 -11 13 -20 16 -20 2 0 0 9 -6 20 -6 11 -13 20 -16 20
-2 0 0 -9 6 -20z"/>
<path d="M3580 570 c6 -11 13 -20 16 -20 2 0 0 9 -6 20 -6 11 -13 20 -16 20
-2 0 0 -9 6 -20z"/>
<path d="M3620 502 c14 -29 37 -39 53 -23 9 9 8 11 -7 5 -13 -5 -24 0 -38 17
-19 24 -19 24 -8 1z"/>
</g>
</svg>
